# xmcd
#
# Track frame offsets: 
#        150
#        17598
#        33580
#        51067
#        65127
#        85956
#        100904
#        120281
#        139701
#        155831
#        170309
#        187706
#
# Disc length: 2696 seconds
#
# Revision: 8
# Processed by: cddbd v1.5.2PL0 Copyright (c) Steve Scherf et al.
# Submitted via: ExactAudioCopy v1.0b3
#
DISCID=960a860c
DTITLE=Matthias Reim - Maenner sind Krieger
DYEAR=2007
DGENRE=Pop
TTITLE0=Maenner sind Krieger
TTITLE1=Ich will dich immer noch
TTITLE2=Erdbeeren im Schnee
TTITLE3=Unberechenbar
TTITLE4=Gib mein Herz her
TTITLE5=Du gehoerst mir
TTITLE6=Ich hab's dir doch gesagt
TTITLE7=Die Einzige
TTITLE8=Dieses Lied ist nicht fuer dich
TTITLE9=Romeo weint
TTITLE10=Ich will gar nichts von dir
TTITLE11=Koenig
EXTD=YEAR: 2007
EXTT0=
EXTT1=
EXTT2=
EXTT3=
EXTT4=
EXTT5=
EXTT6=
EXTT7=
EXTT8=
EXTT9=
EXTT10=
EXTT11=
PLAYORDER=
